# Tiled2Unity generated file. Do not modify by hand.
# Wavefront file for 'Spaceship-(Base-floor-1-Stars)_mesh_0006.obj'

# Vertices (Count = 728)
v -128000 -140800 0
v -131200 -140800 0
v -131200 -137600 0
v -128000 -137600 0
v -134400 -140800 0
v -137600 -140800 0
v -137600 -137600 0
v -134400 -137600 0
v -140800 -140800 0
v -144000 -140800 0
v -144000 -137600 0
v -140800 -137600 0
v -147200 -140800 0
v -150400 -140800 0
v -150400 -137600 0
v -147200 -137600 0
v -153600 -140800 0
v -156800 -140800 0
v -156800 -137600 0
v -153600 -137600 0
v -160000 -140800 0
v -163200 -140800 0
v -163200 -137600 0
v -160000 -137600 0
v -166400 -140800 0
v -169600 -140800 0
v -169600 -137600 0
v -166400 -137600 0
v -172800 -140800 0
v -176000 -140800 0
v -176000 -137600 0
v -172800 -137600 0
v -179200 -140800 0
v -182400 -140800 0
v -182400 -137600 0
v -179200 -137600 0
v -185600 -140800 0
v -188800 -140800 0
v -188800 -137600 0
v -185600 -137600 0
v -192000 -140800 0
v -195200 -140800 0
v -195200 -137600 0
v -192000 -137600 0
v -198400 -140800 0
v -201600 -140800 0
v -201600 -137600 0
v -198400 -137600 0
v -204800 -140800 0
v -208000 -140800 0
v -208000 -137600 0
v -204800 -137600 0
v -211200 -140800 0
v -214400 -140800 0
v -214400 -137600 0
v -211200 -137600 0
v -128000 -147200 0
v -131200 -147200 0
v -131200 -144000 0
v -128000 -144000 0
v -134400 -147200 0
v -137600 -147200 0
v -137600 -144000 0
v -134400 -144000 0
v -140800 -147200 0
v -144000 -147200 0
v -144000 -144000 0
v -140800 -144000 0
v -147200 -147200 0
v -150400 -147200 0
v -150400 -144000 0
v -147200 -144000 0
v -153600 -147200 0
v -156800 -147200 0
v -156800 -144000 0
v -153600 -144000 0
v -160000 -147200 0
v -163200 -147200 0
v -163200 -144000 0
v -160000 -144000 0
v -166400 -147200 0
v -169600 -147200 0
v -169600 -144000 0
v -166400 -144000 0
v -172800 -147200 0
v -176000 -147200 0
v -176000 -144000 0
v -172800 -144000 0
v -179200 -147200 0
v -182400 -147200 0
v -182400 -144000 0
v -179200 -144000 0
v -185600 -147200 0
v -188800 -147200 0
v -188800 -144000 0
v -185600 -144000 0
v -192000 -147200 0
v -195200 -147200 0
v -195200 -144000 0
v -192000 -144000 0
v -198400 -147200 0
v -201600 -147200 0
v -201600 -144000 0
v -198400 -144000 0
v -204800 -147200 0
v -208000 -147200 0
v -208000 -144000 0
v -204800 -144000 0
v -211200 -147200 0
v -214400 -147200 0
v -214400 -144000 0
v -211200 -144000 0
v -128000 -153600 0
v -131200 -153600 0
v -131200 -150400 0
v -128000 -150400 0
v -134400 -153600 0
v -137600 -153600 0
v -137600 -150400 0
v -134400 -150400 0
v -140800 -153600 0
v -144000 -153600 0
v -144000 -150400 0
v -140800 -150400 0
v -147200 -153600 0
v -150400 -153600 0
v -150400 -150400 0
v -147200 -150400 0
v -153600 -153600 0
v -156800 -153600 0
v -156800 -150400 0
v -153600 -150400 0
v -160000 -153600 0
v -163200 -153600 0
v -163200 -150400 0
v -160000 -150400 0
v -166400 -153600 0
v -169600 -153600 0
v -169600 -150400 0
v -166400 -150400 0
v -172800 -153600 0
v -176000 -153600 0
v -176000 -150400 0
v -172800 -150400 0
v -179200 -153600 0
v -182400 -153600 0
v -182400 -150400 0
v -179200 -150400 0
v -185600 -153600 0
v -188800 -153600 0
v -188800 -150400 0
v -185600 -150400 0
v -192000 -153600 0
v -195200 -153600 0
v -195200 -150400 0
v -192000 -150400 0
v -198400 -153600 0
v -201600 -153600 0
v -201600 -150400 0
v -198400 -150400 0
v -204800 -153600 0
v -208000 -153600 0
v -208000 -150400 0
v -204800 -150400 0
v -211200 -153600 0
v -214400 -153600 0
v -214400 -150400 0
v -211200 -150400 0
v -128000 -160000 0
v -131200 -160000 0
v -131200 -156800 0
v -128000 -156800 0
v -134400 -160000 0
v -137600 -160000 0
v -137600 -156800 0
v -134400 -156800 0
v -140800 -160000 0
v -144000 -160000 0
v -144000 -156800 0
v -140800 -156800 0
v -147200 -160000 0
v -150400 -160000 0
v -150400 -156800 0
v -147200 -156800 0
v -153600 -160000 0
v -156800 -160000 0
v -156800 -156800 0
v -153600 -156800 0
v -160000 -160000 0
v -163200 -160000 0
v -163200 -156800 0
v -160000 -156800 0
v -166400 -160000 0
v -169600 -160000 0
v -169600 -156800 0
v -166400 -156800 0
v -172800 -160000 0
v -176000 -160000 0
v -176000 -156800 0
v -172800 -156800 0
v -179200 -160000 0
v -182400 -160000 0
v -182400 -156800 0
v -179200 -156800 0
v -185600 -160000 0
v -188800 -160000 0
v -188800 -156800 0
v -185600 -156800 0
v -192000 -160000 0
v -195200 -160000 0
v -195200 -156800 0
v -192000 -156800 0
v -198400 -160000 0
v -201600 -160000 0
v -201600 -156800 0
v -198400 -156800 0
v -204800 -160000 0
v -208000 -160000 0
v -208000 -156800 0
v -204800 -156800 0
v -211200 -160000 0
v -214400 -160000 0
v -214400 -156800 0
v -211200 -156800 0
v -128000 -166400 0
v -131200 -166400 0
v -131200 -163200 0
v -128000 -163200 0
v -134400 -166400 0
v -137600 -166400 0
v -137600 -163200 0
v -134400 -163200 0
v -140800 -166400 0
v -144000 -166400 0
v -144000 -163200 0
v -140800 -163200 0
v -147200 -166400 0
v -150400 -166400 0
v -150400 -163200 0
v -147200 -163200 0
v -153600 -166400 0
v -156800 -166400 0
v -156800 -163200 0
v -153600 -163200 0
v -160000 -166400 0
v -163200 -166400 0
v -163200 -163200 0
v -160000 -163200 0
v -166400 -166400 0
v -169600 -166400 0
v -169600 -163200 0
v -166400 -163200 0
v -172800 -166400 0
v -176000 -166400 0
v -176000 -163200 0
v -172800 -163200 0
v -179200 -166400 0
v -182400 -166400 0
v -182400 -163200 0
v -179200 -163200 0
v -185600 -166400 0
v -188800 -166400 0
v -188800 -163200 0
v -185600 -163200 0
v -192000 -166400 0
v -195200 -166400 0
v -195200 -163200 0
v -192000 -163200 0
v -198400 -166400 0
v -201600 -166400 0
v -201600 -163200 0
v -198400 -163200 0
v -204800 -166400 0
v -208000 -166400 0
v -208000 -163200 0
v -204800 -163200 0
v -211200 -166400 0
v -214400 -166400 0
v -214400 -163200 0
v -211200 -163200 0
v -128000 -172800 0
v -131200 -172800 0
v -131200 -169600 0
v -128000 -169600 0
v -134400 -172800 0
v -137600 -172800 0
v -137600 -169600 0
v -134400 -169600 0
v -140800 -172800 0
v -144000 -172800 0
v -144000 -169600 0
v -140800 -169600 0
v -147200 -172800 0
v -150400 -172800 0
v -150400 -169600 0
v -147200 -169600 0
v -153600 -172800 0
v -156800 -172800 0
v -156800 -169600 0
v -153600 -169600 0
v -160000 -172800 0
v -163200 -172800 0
v -163200 -169600 0
v -160000 -169600 0
v -166400 -172800 0
v -169600 -172800 0
v -169600 -169600 0
v -166400 -169600 0
v -172800 -172800 0
v -176000 -172800 0
v -176000 -169600 0
v -172800 -169600 0
v -179200 -172800 0
v -182400 -172800 0
v -182400 -169600 0
v -179200 -169600 0
v -185600 -172800 0
v -188800 -172800 0
v -188800 -169600 0
v -185600 -169600 0
v -192000 -172800 0
v -195200 -172800 0
v -195200 -169600 0
v -192000 -169600 0
v -198400 -172800 0
v -201600 -172800 0
v -201600 -169600 0
v -198400 -169600 0
v -204800 -172800 0
v -208000 -172800 0
v -208000 -169600 0
v -204800 -169600 0
v -211200 -172800 0
v -214400 -172800 0
v -214400 -169600 0
v -211200 -169600 0
v -128000 -179200 0
v -131200 -179200 0
v -131200 -176000 0
v -128000 -176000 0
v -134400 -179200 0
v -137600 -179200 0
v -137600 -176000 0
v -134400 -176000 0
v -140800 -179200 0
v -144000 -179200 0
v -144000 -176000 0
v -140800 -176000 0
v -147200 -179200 0
v -150400 -179200 0
v -150400 -176000 0
v -147200 -176000 0
v -153600 -179200 0
v -156800 -179200 0
v -156800 -176000 0
v -153600 -176000 0
v -160000 -179200 0
v -163200 -179200 0
v -163200 -176000 0
v -160000 -176000 0
v -166400 -179200 0
v -169600 -179200 0
v -169600 -176000 0
v -166400 -176000 0
v -172800 -179200 0
v -176000 -179200 0
v -176000 -176000 0
v -172800 -176000 0
v -179200 -179200 0
v -182400 -179200 0
v -182400 -176000 0
v -179200 -176000 0
v -185600 -179200 0
v -188800 -179200 0
v -188800 -176000 0
v -185600 -176000 0
v -192000 -179200 0
v -195200 -179200 0
v -195200 -176000 0
v -192000 -176000 0
v -198400 -179200 0
v -201600 -179200 0
v -201600 -176000 0
v -198400 -176000 0
v -204800 -179200 0
v -208000 -179200 0
v -208000 -176000 0
v -204800 -176000 0
v -211200 -179200 0
v -214400 -179200 0
v -214400 -176000 0
v -211200 -176000 0
v -128000 -185600 0
v -131200 -185600 0
v -131200 -182400 0
v -128000 -182400 0
v -134400 -185600 0
v -137600 -185600 0
v -137600 -182400 0
v -134400 -182400 0
v -140800 -185600 0
v -144000 -185600 0
v -144000 -182400 0
v -140800 -182400 0
v -147200 -185600 0
v -150400 -185600 0
v -150400 -182400 0
v -147200 -182400 0
v -153600 -185600 0
v -156800 -185600 0
v -156800 -182400 0
v -153600 -182400 0
v -160000 -185600 0
v -163200 -185600 0
v -163200 -182400 0
v -160000 -182400 0
v -166400 -185600 0
v -169600 -185600 0
v -169600 -182400 0
v -166400 -182400 0
v -172800 -185600 0
v -176000 -185600 0
v -176000 -182400 0
v -172800 -182400 0
v -179200 -185600 0
v -182400 -185600 0
v -182400 -182400 0
v -179200 -182400 0
v -185600 -185600 0
v -188800 -185600 0
v -188800 -182400 0
v -185600 -182400 0
v -192000 -185600 0
v -195200 -185600 0
v -195200 -182400 0
v -192000 -182400 0
v -198400 -185600 0
v -201600 -185600 0
v -201600 -182400 0
v -198400 -182400 0
v -204800 -185600 0
v -208000 -185600 0
v -208000 -182400 0
v -204800 -182400 0
v -211200 -185600 0
v -214400 -185600 0
v -214400 -182400 0
v -211200 -182400 0
v -128000 -192000 0
v -131200 -192000 0
v -131200 -188800 0
v -128000 -188800 0
v -134400 -192000 0
v -137600 -192000 0
v -137600 -188800 0
v -134400 -188800 0
v -140800 -192000 0
v -144000 -192000 0
v -144000 -188800 0
v -140800 -188800 0
v -147200 -192000 0
v -150400 -192000 0
v -150400 -188800 0
v -147200 -188800 0
v -153600 -192000 0
v -156800 -192000 0
v -156800 -188800 0
v -153600 -188800 0
v -160000 -192000 0
v -163200 -192000 0
v -163200 -188800 0
v -160000 -188800 0
v -166400 -192000 0
v -169600 -192000 0
v -169600 -188800 0
v -166400 -188800 0
v -172800 -192000 0
v -176000 -192000 0
v -176000 -188800 0
v -172800 -188800 0
v -179200 -192000 0
v -182400 -192000 0
v -182400 -188800 0
v -179200 -188800 0
v -185600 -192000 0
v -188800 -192000 0
v -188800 -188800 0
v -185600 -188800 0
v -192000 -192000 0
v -195200 -192000 0
v -195200 -188800 0
v -192000 -188800 0
v -198400 -192000 0
v -201600 -192000 0
v -201600 -188800 0
v -198400 -188800 0
v -204800 -192000 0
v -208000 -192000 0
v -208000 -188800 0
v -204800 -188800 0
v -211200 -192000 0
v -214400 -192000 0
v -214400 -188800 0
v -211200 -188800 0
v -128000 -198400 0
v -131200 -198400 0
v -131200 -195200 0
v -128000 -195200 0
v -134400 -198400 0
v -137600 -198400 0
v -137600 -195200 0
v -134400 -195200 0
v -140800 -198400 0
v -144000 -198400 0
v -144000 -195200 0
v -140800 -195200 0
v -147200 -198400 0
v -150400 -198400 0
v -150400 -195200 0
v -147200 -195200 0
v -153600 -198400 0
v -156800 -198400 0
v -156800 -195200 0
v -153600 -195200 0
v -160000 -198400 0
v -163200 -198400 0
v -163200 -195200 0
v -160000 -195200 0
v -166400 -198400 0
v -169600 -198400 0
v -169600 -195200 0
v -166400 -195200 0
v -172800 -198400 0
v -176000 -198400 0
v -176000 -195200 0
v -172800 -195200 0
v -179200 -198400 0
v -182400 -198400 0
v -182400 -195200 0
v -179200 -195200 0
v -185600 -198400 0
v -188800 -198400 0
v -188800 -195200 0
v -185600 -195200 0
v -192000 -198400 0
v -195200 -198400 0
v -195200 -195200 0
v -192000 -195200 0
v -198400 -198400 0
v -201600 -198400 0
v -201600 -195200 0
v -198400 -195200 0
v -204800 -198400 0
v -208000 -198400 0
v -208000 -195200 0
v -204800 -195200 0
v -211200 -198400 0
v -214400 -198400 0
v -214400 -195200 0
v -211200 -195200 0
v -128000 -204800 0
v -131200 -204800 0
v -131200 -201600 0
v -128000 -201600 0
v -134400 -204800 0
v -137600 -204800 0
v -137600 -201600 0
v -134400 -201600 0
v -140800 -204800 0
v -144000 -204800 0
v -144000 -201600 0
v -140800 -201600 0
v -147200 -204800 0
v -150400 -204800 0
v -150400 -201600 0
v -147200 -201600 0
v -153600 -204800 0
v -156800 -204800 0
v -156800 -201600 0
v -153600 -201600 0
v -160000 -204800 0
v -163200 -204800 0
v -163200 -201600 0
v -160000 -201600 0
v -166400 -204800 0
v -169600 -204800 0
v -169600 -201600 0
v -166400 -201600 0
v -172800 -204800 0
v -176000 -204800 0
v -176000 -201600 0
v -172800 -201600 0
v -179200 -204800 0
v -182400 -204800 0
v -182400 -201600 0
v -179200 -201600 0
v -185600 -204800 0
v -188800 -204800 0
v -188800 -201600 0
v -185600 -201600 0
v -192000 -204800 0
v -195200 -204800 0
v -195200 -201600 0
v -192000 -201600 0
v -198400 -204800 0
v -201600 -204800 0
v -201600 -201600 0
v -198400 -201600 0
v -204800 -204800 0
v -208000 -204800 0
v -208000 -201600 0
v -204800 -201600 0
v -211200 -204800 0
v -214400 -204800 0
v -214400 -201600 0
v -211200 -201600 0
v -128000 -211200 0
v -131200 -211200 0
v -131200 -208000 0
v -128000 -208000 0
v -134400 -211200 0
v -137600 -211200 0
v -137600 -208000 0
v -134400 -208000 0
v -140800 -211200 0
v -144000 -211200 0
v -144000 -208000 0
v -140800 -208000 0
v -147200 -211200 0
v -150400 -211200 0
v -150400 -208000 0
v -147200 -208000 0
v -153600 -211200 0
v -156800 -211200 0
v -156800 -208000 0
v -153600 -208000 0
v -160000 -211200 0
v -163200 -211200 0
v -163200 -208000 0
v -160000 -208000 0
v -166400 -211200 0
v -169600 -211200 0
v -169600 -208000 0
v -166400 -208000 0
v -172800 -211200 0
v -176000 -211200 0
v -176000 -208000 0
v -172800 -208000 0
v -179200 -211200 0
v -182400 -211200 0
v -182400 -208000 0
v -179200 -208000 0
v -185600 -211200 0
v -188800 -211200 0
v -188800 -208000 0
v -185600 -208000 0
v -192000 -211200 0
v -195200 -211200 0
v -195200 -208000 0
v -192000 -208000 0
v -198400 -211200 0
v -201600 -211200 0
v -201600 -208000 0
v -198400 -208000 0
v -204800 -211200 0
v -208000 -211200 0
v -208000 -208000 0
v -204800 -208000 0
v -211200 -211200 0
v -214400 -211200 0
v -214400 -208000 0
v -211200 -208000 0
v -128000 -217600 0
v -131200 -217600 0
v -131200 -214400 0
v -128000 -214400 0
v -134400 -217600 0
v -137600 -217600 0
v -137600 -214400 0
v -134400 -214400 0
v -140800 -217600 0
v -144000 -217600 0
v -144000 -214400 0
v -140800 -214400 0
v -147200 -217600 0
v -150400 -217600 0
v -150400 -214400 0
v -147200 -214400 0
v -153600 -217600 0
v -156800 -217600 0
v -156800 -214400 0
v -153600 -214400 0
v -160000 -217600 0
v -163200 -217600 0
v -163200 -214400 0
v -160000 -214400 0
v -166400 -217600 0
v -169600 -217600 0
v -169600 -214400 0
v -166400 -214400 0
v -172800 -217600 0
v -176000 -217600 0
v -176000 -214400 0
v -172800 -214400 0
v -179200 -217600 0
v -182400 -217600 0
v -182400 -214400 0
v -179200 -214400 0
v -185600 -217600 0
v -188800 -217600 0
v -188800 -214400 0
v -185600 -214400 0
v -192000 -217600 0
v -195200 -217600 0
v -195200 -214400 0
v -192000 -214400 0
v -198400 -217600 0
v -201600 -217600 0
v -201600 -214400 0
v -198400 -214400 0
v -204800 -217600 0
v -208000 -217600 0
v -208000 -214400 0
v -204800 -214400 0
v -211200 -217600 0
v -214400 -217600 0
v -214400 -214400 0
v -211200 -214400 0

# Texture cooridinates (Count = 4)
vt 0 0
vt 1 0
vt 1 1
vt 0 1

# Normal
vn 0 0 -1

# Mesh description
g Spaceship-(Base-floor-1-Stars)_mesh_0006

# Faces
f 1/1/1 2/2/1 3/3/1 4/4/1
f 5/1/1 6/2/1 7/3/1 8/4/1
f 9/1/1 10/2/1 11/3/1 12/4/1
f 13/1/1 14/2/1 15/3/1 16/4/1
f 17/1/1 18/2/1 19/3/1 20/4/1
f 21/1/1 22/2/1 23/3/1 24/4/1
f 25/1/1 26/2/1 27/3/1 28/4/1
f 29/1/1 30/2/1 31/3/1 32/4/1
f 33/1/1 34/2/1 35/3/1 36/4/1
f 37/1/1 38/2/1 39/3/1 40/4/1
f 41/1/1 42/2/1 43/3/1 44/4/1
f 45/1/1 46/2/1 47/3/1 48/4/1
f 49/1/1 50/2/1 51/3/1 52/4/1
f 53/1/1 54/2/1 55/3/1 56/4/1
f 57/1/1 58/2/1 59/3/1 60/4/1
f 61/1/1 62/2/1 63/3/1 64/4/1
f 65/1/1 66/2/1 67/3/1 68/4/1
f 69/1/1 70/2/1 71/3/1 72/4/1
f 73/1/1 74/2/1 75/3/1 76/4/1
f 77/1/1 78/2/1 79/3/1 80/4/1
f 81/1/1 82/2/1 83/3/1 84/4/1
f 85/1/1 86/2/1 87/3/1 88/4/1
f 89/1/1 90/2/1 91/3/1 92/4/1
f 93/1/1 94/2/1 95/3/1 96/4/1
f 97/1/1 98/2/1 99/3/1 100/4/1
f 101/1/1 102/2/1 103/3/1 104/4/1
f 105/1/1 106/2/1 107/3/1 108/4/1
f 109/1/1 110/2/1 111/3/1 112/4/1
f 113/1/1 114/2/1 115/3/1 116/4/1
f 117/1/1 118/2/1 119/3/1 120/4/1
f 121/1/1 122/2/1 123/3/1 124/4/1
f 125/1/1 126/2/1 127/3/1 128/4/1
f 129/1/1 130/2/1 131/3/1 132/4/1
f 133/1/1 134/2/1 135/3/1 136/4/1
f 137/1/1 138/2/1 139/3/1 140/4/1
f 141/1/1 142/2/1 143/3/1 144/4/1
f 145/1/1 146/2/1 147/3/1 148/4/1
f 149/1/1 150/2/1 151/3/1 152/4/1
f 153/1/1 154/2/1 155/3/1 156/4/1
f 157/1/1 158/2/1 159/3/1 160/4/1
f 161/1/1 162/2/1 163/3/1 164/4/1
f 165/1/1 166/2/1 167/3/1 168/4/1
f 169/1/1 170/2/1 171/3/1 172/4/1
f 173/1/1 174/2/1 175/3/1 176/4/1
f 177/1/1 178/2/1 179/3/1 180/4/1
f 181/1/1 182/2/1 183/3/1 184/4/1
f 185/1/1 186/2/1 187/3/1 188/4/1
f 189/1/1 190/2/1 191/3/1 192/4/1
f 193/1/1 194/2/1 195/3/1 196/4/1
f 197/1/1 198/2/1 199/3/1 200/4/1
f 201/1/1 202/2/1 203/3/1 204/4/1
f 205/1/1 206/2/1 207/3/1 208/4/1
f 209/1/1 210/2/1 211/3/1 212/4/1
f 213/1/1 214/2/1 215/3/1 216/4/1
f 217/1/1 218/2/1 219/3/1 220/4/1
f 221/1/1 222/2/1 223/3/1 224/4/1
f 225/1/1 226/2/1 227/3/1 228/4/1
f 229/1/1 230/2/1 231/3/1 232/4/1
f 233/1/1 234/2/1 235/3/1 236/4/1
f 237/1/1 238/2/1 239/3/1 240/4/1
f 241/1/1 242/2/1 243/3/1 244/4/1
f 245/1/1 246/2/1 247/3/1 248/4/1
f 249/1/1 250/2/1 251/3/1 252/4/1
f 253/1/1 254/2/1 255/3/1 256/4/1
f 257/1/1 258/2/1 259/3/1 260/4/1
f 261/1/1 262/2/1 263/3/1 264/4/1
f 265/1/1 266/2/1 267/3/1 268/4/1
f 269/1/1 270/2/1 271/3/1 272/4/1
f 273/1/1 274/2/1 275/3/1 276/4/1
f 277/1/1 278/2/1 279/3/1 280/4/1
f 281/1/1 282/2/1 283/3/1 284/4/1
f 285/1/1 286/2/1 287/3/1 288/4/1
f 289/1/1 290/2/1 291/3/1 292/4/1
f 293/1/1 294/2/1 295/3/1 296/4/1
f 297/1/1 298/2/1 299/3/1 300/4/1
f 301/1/1 302/2/1 303/3/1 304/4/1
f 305/1/1 306/2/1 307/3/1 308/4/1
f 309/1/1 310/2/1 311/3/1 312/4/1
f 313/1/1 314/2/1 315/3/1 316/4/1
f 317/1/1 318/2/1 319/3/1 320/4/1
f 321/1/1 322/2/1 323/3/1 324/4/1
f 325/1/1 326/2/1 327/3/1 328/4/1
f 329/1/1 330/2/1 331/3/1 332/4/1
f 333/1/1 334/2/1 335/3/1 336/4/1
f 337/1/1 338/2/1 339/3/1 340/4/1
f 341/1/1 342/2/1 343/3/1 344/4/1
f 345/1/1 346/2/1 347/3/1 348/4/1
f 349/1/1 350/2/1 351/3/1 352/4/1
f 353/1/1 354/2/1 355/3/1 356/4/1
f 357/1/1 358/2/1 359/3/1 360/4/1
f 361/1/1 362/2/1 363/3/1 364/4/1
f 365/1/1 366/2/1 367/3/1 368/4/1
f 369/1/1 370/2/1 371/3/1 372/4/1
f 373/1/1 374/2/1 375/3/1 376/4/1
f 377/1/1 378/2/1 379/3/1 380/4/1
f 381/1/1 382/2/1 383/3/1 384/4/1
f 385/1/1 386/2/1 387/3/1 388/4/1
f 389/1/1 390/2/1 391/3/1 392/4/1
f 393/1/1 394/2/1 395/3/1 396/4/1
f 397/1/1 398/2/1 399/3/1 400/4/1
f 401/1/1 402/2/1 403/3/1 404/4/1
f 405/1/1 406/2/1 407/3/1 408/4/1
f 409/1/1 410/2/1 411/3/1 412/4/1
f 413/1/1 414/2/1 415/3/1 416/4/1
f 417/1/1 418/2/1 419/3/1 420/4/1
f 421/1/1 422/2/1 423/3/1 424/4/1
f 425/1/1 426/2/1 427/3/1 428/4/1
f 429/1/1 430/2/1 431/3/1 432/4/1
f 433/1/1 434/2/1 435/3/1 436/4/1
f 437/1/1 438/2/1 439/3/1 440/4/1
f 441/1/1 442/2/1 443/3/1 444/4/1
f 445/1/1 446/2/1 447/3/1 448/4/1
f 449/1/1 450/2/1 451/3/1 452/4/1
f 453/1/1 454/2/1 455/3/1 456/4/1
f 457/1/1 458/2/1 459/3/1 460/4/1
f 461/1/1 462/2/1 463/3/1 464/4/1
f 465/1/1 466/2/1 467/3/1 468/4/1
f 469/1/1 470/2/1 471/3/1 472/4/1
f 473/1/1 474/2/1 475/3/1 476/4/1
f 477/1/1 478/2/1 479/3/1 480/4/1
f 481/1/1 482/2/1 483/3/1 484/4/1
f 485/1/1 486/2/1 487/3/1 488/4/1
f 489/1/1 490/2/1 491/3/1 492/4/1
f 493/1/1 494/2/1 495/3/1 496/4/1
f 497/1/1 498/2/1 499/3/1 500/4/1
f 501/1/1 502/2/1 503/3/1 504/4/1
f 505/1/1 506/2/1 507/3/1 508/4/1
f 509/1/1 510/2/1 511/3/1 512/4/1
f 513/1/1 514/2/1 515/3/1 516/4/1
f 517/1/1 518/2/1 519/3/1 520/4/1
f 521/1/1 522/2/1 523/3/1 524/4/1
f 525/1/1 526/2/1 527/3/1 528/4/1
f 529/1/1 530/2/1 531/3/1 532/4/1
f 533/1/1 534/2/1 535/3/1 536/4/1
f 537/1/1 538/2/1 539/3/1 540/4/1
f 541/1/1 542/2/1 543/3/1 544/4/1
f 545/1/1 546/2/1 547/3/1 548/4/1
f 549/1/1 550/2/1 551/3/1 552/4/1
f 553/1/1 554/2/1 555/3/1 556/4/1
f 557/1/1 558/2/1 559/3/1 560/4/1
f 561/1/1 562/2/1 563/3/1 564/4/1
f 565/1/1 566/2/1 567/3/1 568/4/1
f 569/1/1 570/2/1 571/3/1 572/4/1
f 573/1/1 574/2/1 575/3/1 576/4/1
f 577/1/1 578/2/1 579/3/1 580/4/1
f 581/1/1 582/2/1 583/3/1 584/4/1
f 585/1/1 586/2/1 587/3/1 588/4/1
f 589/1/1 590/2/1 591/3/1 592/4/1
f 593/1/1 594/2/1 595/3/1 596/4/1
f 597/1/1 598/2/1 599/3/1 600/4/1
f 601/1/1 602/2/1 603/3/1 604/4/1
f 605/1/1 606/2/1 607/3/1 608/4/1
f 609/1/1 610/2/1 611/3/1 612/4/1
f 613/1/1 614/2/1 615/3/1 616/4/1
f 617/1/1 618/2/1 619/3/1 620/4/1
f 621/1/1 622/2/1 623/3/1 624/4/1
f 625/1/1 626/2/1 627/3/1 628/4/1
f 629/1/1 630/2/1 631/3/1 632/4/1
f 633/1/1 634/2/1 635/3/1 636/4/1
f 637/1/1 638/2/1 639/3/1 640/4/1
f 641/1/1 642/2/1 643/3/1 644/4/1
f 645/1/1 646/2/1 647/3/1 648/4/1
f 649/1/1 650/2/1 651/3/1 652/4/1
f 653/1/1 654/2/1 655/3/1 656/4/1
f 657/1/1 658/2/1 659/3/1 660/4/1
f 661/1/1 662/2/1 663/3/1 664/4/1
f 665/1/1 666/2/1 667/3/1 668/4/1
f 669/1/1 670/2/1 671/3/1 672/4/1
f 673/1/1 674/2/1 675/3/1 676/4/1
f 677/1/1 678/2/1 679/3/1 680/4/1
f 681/1/1 682/2/1 683/3/1 684/4/1
f 685/1/1 686/2/1 687/3/1 688/4/1
f 689/1/1 690/2/1 691/3/1 692/4/1
f 693/1/1 694/2/1 695/3/1 696/4/1
f 697/1/1 698/2/1 699/3/1 700/4/1
f 701/1/1 702/2/1 703/3/1 704/4/1
f 705/1/1 706/2/1 707/3/1 708/4/1
f 709/1/1 710/2/1 711/3/1 712/4/1
f 713/1/1 714/2/1 715/3/1 716/4/1
f 717/1/1 718/2/1 719/3/1 720/4/1
f 721/1/1 722/2/1 723/3/1 724/4/1
f 725/1/1 726/2/1 727/3/1 728/4/1

