# Tiled2Unity generated file. Do not modify by hand.
# Wavefront file for 'Spaceship-(Base-floor-1-Stars-test)_mesh_0006.obj'

# Vertices (Count = 108)
v -128000 -137600 0
v -131200 -137600 0
v -131200 -134400 0
v -128000 -134400 0
v -131200 -137600 0
v -134400 -137600 0
v -134400 -134400 0
v -131200 -134400 0
v -134400 -137600 0
v -137600 -137600 0
v -137600 -134400 0
v -134400 -134400 0
v -137600 -137600 0
v -140800 -137600 0
v -140800 -134400 0
v -137600 -134400 0
v -140800 -137600 0
v -144000 -137600 0
v -144000 -134400 0
v -140800 -134400 0
v -144000 -137600 0
v -147200 -137600 0
v -147200 -134400 0
v -144000 -134400 0
v -147200 -137600 0
v -150400 -137600 0
v -150400 -134400 0
v -147200 -134400 0
v -150400 -137600 0
v -153600 -137600 0
v -153600 -134400 0
v -150400 -134400 0
v -153600 -137600 0
v -156800 -137600 0
v -156800 -134400 0
v -153600 -134400 0
v -156800 -137600 0
v -160000 -137600 0
v -160000 -134400 0
v -156800 -134400 0
v -160000 -137600 0
v -163200 -137600 0
v -163200 -134400 0
v -160000 -134400 0
v -163200 -137600 0
v -166400 -137600 0
v -166400 -134400 0
v -163200 -134400 0
v -166400 -137600 0
v -169600 -137600 0
v -169600 -134400 0
v -166400 -134400 0
v -169600 -137600 0
v -172800 -137600 0
v -172800 -134400 0
v -169600 -134400 0
v -172800 -137600 0
v -176000 -137600 0
v -176000 -134400 0
v -172800 -134400 0
v -176000 -137600 0
v -179200 -137600 0
v -179200 -134400 0
v -176000 -134400 0
v -179200 -137600 0
v -182400 -137600 0
v -182400 -134400 0
v -179200 -134400 0
v -182400 -137600 0
v -185600 -137600 0
v -185600 -134400 0
v -182400 -134400 0
v -185600 -137600 0
v -188800 -137600 0
v -188800 -134400 0
v -185600 -134400 0
v -188800 -137600 0
v -192000 -137600 0
v -192000 -134400 0
v -188800 -134400 0
v -192000 -137600 0
v -195200 -137600 0
v -195200 -134400 0
v -192000 -134400 0
v -195200 -137600 0
v -198400 -137600 0
v -198400 -134400 0
v -195200 -134400 0
v -198400 -137600 0
v -201600 -137600 0
v -201600 -134400 0
v -198400 -134400 0
v -201600 -137600 0
v -204800 -137600 0
v -204800 -134400 0
v -201600 -134400 0
v -204800 -137600 0
v -208000 -137600 0
v -208000 -134400 0
v -204800 -134400 0
v -208000 -137600 0
v -211200 -137600 0
v -211200 -134400 0
v -208000 -134400 0
v -211200 -137600 0
v -214400 -137600 0
v -214400 -134400 0
v -211200 -134400 0

# Texture cooridinates (Count = 4)
vt 0 0
vt 1 0
vt 1 1
vt 0 1

# Normal
vn 0 0 -1

# Mesh description
g Spaceship-(Base-floor-1-Stars-test)_mesh_0006

# Faces
f 1/1/1 2/2/1 3/3/1 4/4/1
f 5/1/1 6/2/1 7/3/1 8/4/1
f 9/1/1 10/2/1 11/3/1 12/4/1
f 13/1/1 14/2/1 15/3/1 16/4/1
f 17/1/1 18/2/1 19/3/1 20/4/1
f 21/1/1 22/2/1 23/3/1 24/4/1
f 25/1/1 26/2/1 27/3/1 28/4/1
f 29/1/1 30/2/1 31/3/1 32/4/1
f 33/1/1 34/2/1 35/3/1 36/4/1
f 37/1/1 38/2/1 39/3/1 40/4/1
f 41/1/1 42/2/1 43/3/1 44/4/1
f 45/1/1 46/2/1 47/3/1 48/4/1
f 49/1/1 50/2/1 51/3/1 52/4/1
f 53/1/1 54/2/1 55/3/1 56/4/1
f 57/1/1 58/2/1 59/3/1 60/4/1
f 61/1/1 62/2/1 63/3/1 64/4/1
f 65/1/1 66/2/1 67/3/1 68/4/1
f 69/1/1 70/2/1 71/3/1 72/4/1
f 73/1/1 74/2/1 75/3/1 76/4/1
f 77/1/1 78/2/1 79/3/1 80/4/1
f 81/1/1 82/2/1 83/3/1 84/4/1
f 85/1/1 86/2/1 87/3/1 88/4/1
f 89/1/1 90/2/1 91/3/1 92/4/1
f 93/1/1 94/2/1 95/3/1 96/4/1
f 97/1/1 98/2/1 99/3/1 100/4/1
f 101/1/1 102/2/1 103/3/1 104/4/1
f 105/1/1 106/2/1 107/3/1 108/4/1

