# Tiled2Unity generated file. Do not modify by hand.
# Wavefront file for 'Spaceship-(Base-floor-1-Stars-test)_mesh_0005.obj'

# Vertices (Count = 8)
v -124800 -137600 0
v -128000 -137600 0
v -128000 -134400 0
v -124800 -134400 0
v -214400 -137600 0
v -217600 -137600 0
v -217600 -134400 0
v -214400 -134400 0

# Texture cooridinates (Count = 4)
vt 1 0
vt 0 0
vt 0 1
vt 1 1

# Normal
vn 0 0 -1

# Mesh description
g Spaceship-(Base-floor-1-Stars-test)_mesh_0005

# Faces
f 1/1/1 2/2/1 3/3/1 4/4/1
f 5/2/1 6/1/1 7/4/1 8/3/1

